<svg id="Capa_1" data-name="Capa 1" xmlns="http://www.w3.org/2000/svg" width="512" height="512" viewBox="0 0 512 512"><title>thanks</title><path d="M256 512C114.84 512 0 397.16 0 256S114.84 0 256 0s256 114.84 256 256-114.84 256-256 256zm0-496.48C123.39 15.52 15.52 123.39 15.52 256S123.39 496.48 256 496.48 496.48 388.61 496.48 256 388.61 15.52 256 15.52z" fill="#5bdf52"/><path d="M256 373.74a203.12 203.12 0 0 1-106.7-30.37l-6.14-3.79a7.75 7.75 0 1 1 8.13-13.2l6.14 3.79a186.93 186.93 0 0 0 197.1 0l6.14-3.8a7.76 7.76 0 1 1 8.15 13.2l-6.16 3.8A203.1 203.1 0 0 1 256 373.74zm-36.74-166.61a7.79 7.79 0 0 1-5.49-2.27l-30.53-30.53-30.54 30.53a7.76 7.76 0 0 1-11-11l36-36a7.76 7.76 0 0 1 11 0l36 36a7.76 7.76 0 0 1 0 11 7.67 7.67 0 0 1-5.44 2.27zm145.52 0a7.79 7.79 0 0 1-5.49-2.27l-30.53-30.53-30.53 30.53a7.76 7.76 0 0 1-11-11l36-36a7.76 7.76 0 0 1 11 0l36 36a7.76 7.76 0 0 1 0 11 7.67 7.67 0 0 1-5.45 2.27z" fill="#5bdf52"/></svg>