<svg xmlns="http://www.w3.org/2000/svg" width="483.3" height="367.8" viewBox="0 0 483.3 367.8"><title>envelope</title><path d="M424.3 0H59.1A59.2 59.2 0 0 0 0 59v249.7a59.2 59.2 0 0 0 59.1 59.1h365.1a59.2 59.2 0 0 0 59.1-59.1V59.2a59.1 59.1 0 0 0-59-59.2zm32.1 308.7a32.1 32.1 0 0 1-32.1 32.1H59.1A32.1 32.1 0 0 1 27 308.7V59.2a32.1 32.1 0 0 1 32.1-32.1h365.1a32.1 32.1 0 0 1 32.1 32.1v249.5z"/><path d="M304.8 180.8L423 74.8a13.524 13.524 0 1 0-18.1-20.1L241.9 201l-31.8-28.4c-.1-.1-.2-.2-.2-.3l-2.2-1.9L78.3 54.5a13.528 13.528 0 0 0-18 20.2l119.6 107L60.8 293.2a13.6 13.6 0 0 0-.6 19.1 13.8 13.8 0 0 0 9.9 4.3 13.5 13.5 0 0 0 9.2-3.6l120.9-113.2 32.8 29.3a13.5 13.5 0 0 0 18-.1l33.7-30.2L404.9 313a13.5 13.5 0 0 0 19.1-.5 13.6 13.6 0 0 0-.5-19.1z"/></svg>