<svg id="Capa_1" data-name="Capa 1" xmlns="http://www.w3.org/2000/svg" width="512" height="512" viewBox="0 0 512 512"><title>fb</title><path d="M384 .1h-66.4C243 0 194.8 49.5 194.8 126v58.1H128a10.4 10.4 0 0 0-10.4 10.4v84.2a10.4 10.4 0 0 0 10.4 10.5h66.8v212.4a10.4 10.4 0 0 0 10.4 10.4h87.1a10.4 10.4 0 0 0 10.4-10.4V289.2h78.1a10.4 10.4 0 0 0 10.4-10.4v-84.3a10.4 10.4 0 0 0-10.4-10.4h-78v-49.2c0-23.7 5.6-35.7 36.5-35.7H384a10.4 10.4 0 0 0 10.4-10.4V10.5A10.4 10.4 0 0 0 384 .1z" fill="none"/></svg>