<svg xmlns="http://www.w3.org/2000/svg" width="512" height="512" viewBox="0 0 512 512"><title>fullscreen</title><path d="M204.1 284.6L127.6 361l.4-41a16 16 0 1 0-32 0v80a14.3 14.3 0 0 0 5.1 11.2 15.9 15.9 0 0 0 11.4 4.8H192a16 16 0 1 0 0-32h-42.1l76.8-76.8zM192 128a16 16 0 1 0 0-32h-79.6a16 16 0 0 0-11.4 4.8 14.3 14.3 0 0 0-5 11.2v80a16 16 0 1 0 32 0l-.4-41.1 76.4 76.4 22.6-22.6L150 128zm208 176a16 16 0 0 0-16 16l.4 41.1-76.4-76.4-22.6 22.6 76.7 76.7H320a16 16 0 1 0 0 32h79.6a15.9 15.9 0 0 0 11.4-4.8 14.3 14.3 0 0 0 5-11.2v-80a16 16 0 0 0-16-16zm-.4-208H320a16 16 0 1 0 0 32h42l-76.8 76.8 22.6 22.6 76.5-76.4-.3 41a16 16 0 1 0 32 0v-80a14.4 14.4 0 0 0-5.1-11.2 16 16 0 0 0-11.3-4.8zM448 0H64A64 64 0 0 0 0 64v384a64 64 0 0 0 64 64h384a64 64 0 0 0 64-64V64a64 64 0 0 0-64-64zm32 448a32 32 0 0 1-32 32H64a32 32 0 0 1-32-32V64a32 32 0 0 1 32-32h384a32 32 0 0 1 32 32z" fill="#fff"/></svg>