<svg xmlns="http://www.w3.org/2000/svg" width="512" height="512" viewBox="0 0 512 512"><title>gplus</title><path d="M292.1 336.5c0-25.1-14.5-37.5-30.6-51l-13.1-10.2c-4-3.3-9.4-7.6-9.4-15.6s5.5-13.1 10.2-17.8c15.3-12 30.6-24.7 30.6-51.7S262.3 148 254 141.1h22.6l23.1-13.1h-75c-19.6 0-44.4 2.9-65.1 20-15.6 13.5-23.3 32-23.3 48.8 0 28.4 21.8 57.1 60.4 57.1 3.7 0 7.6-.4 11.7-.7-1.8 4.4-3.6 8-3.6 14.2 0 11.3 5.8 18.2 10.9 24.7-16.4 1.1-46.9 2.9-69.5 16.7s-28 31.3-28 44.4c0 26.9 25.5 52 78.2 52 62.6.1 95.7-34.5 95.7-68.7zm-78.2-92.8c-31.3 0-45.5-40.4-45.5-64.8 0-9.5 1.8-19.3 8-26.9s16-12 25.5-12c30.2 0 45.8 40.8 45.8 67 0 6.6-.7 18.2-9.1 26.6a37.3 37.3 0 0 1-24.7 10.1zm.4 146.3c-38.9 0-64-18.5-64-44.4s23.3-34.6 31.3-37.5c15.3-5.1 34.9-5.8 38.2-5.8a57.5 57.5 0 0 1 8.4.4c27.7 19.6 39.7 29.5 39.7 48-.2 22.6-18.7 39.3-53.7 39.3z"/><path d="M295.4 265.8h39.4v39.4h19.7v-39.4h39.3v-19.6h-39.3v-39.4h-19.7v39.4h-39.4v19.6z"/><path d="M512 256C512 114.6 397.4 0 256 0S0 114.6 0 256s114.6 256 256 256 256-114.6 256-256zm-488.7 0C23.3 127.5 127.5 23.3 256 23.3S488.7 127.5 488.7 256 384.5 488.7 256 488.7 23.3 384.5 23.3 256z"/></svg>