<svg id="Capa_1" data-name="Capa 1" xmlns="http://www.w3.org/2000/svg" width="487" height="434.3" viewBox="0 0 487 434.3"><title>home</title><path d="M16.8,285H56.5V443.6a17,17,0,0,0,17,17H189.7a17,17,0,0,0,17-17V327.5h70.8V443.6a17,17,0,0,0,17,17H405a17,17,0,0,0,17-17V285h48.2a16.9,16.9,0,0,0,11.9-28.9L260.5,31.4c-6.5-6.5-17.3-6.8-23.8-.3L5.2,255.8a17,17,0,0,0-4,18.7A16.6,16.6,0,0,0,16.8,285ZM248,67.4,429.4,251H405a17,17,0,0,0-17,17V426.6H311.5V310.5a17,17,0,0,0-17-17H189.7a17,17,0,0,0-17,17V426.6H90.5V268a17,17,0,0,0-17-17H58.8Z" transform="translate(0 -26.4)"/></svg>