<svg xmlns="http://www.w3.org/2000/svg" width="28" height="28" viewBox="0 0 28 28"><title>instagram</title><path d="M14 0a14 14 0 1 0 14 14A14 14 0 0 0 14 0zm0 26.4A12.4 12.4 0 1 1 26.4 14 12.4 12.4 0 0 1 14 26.4z"/><path d="M19.1 7.1H8.9a1.7 1.7 0 0 0-1.7 1.7v10.4a1.7 1.7 0 0 0 1.7 1.7h10.2a1.7 1.7 0 0 0 1.7-1.7V8.8a1.7 1.7 0 0 0-1.7-1.7zm.1 12H8.8V8.8h10.4z"/><path d="M16.3 9.9h1.8v1.68h-1.8z"/><circle cx="14" cy="14.7" r="1.8"/><path d="M16.9 14.7a2.9 2.9 0 0 1-5.8 0v-1.3H9.8v4.8h8.3v-4.8h-1.2z"/></svg>