<svg id="Capa_1" data-name="Capa 1" xmlns="http://www.w3.org/2000/svg" width="512" height="512" viewBox="0 0 512 512"><title>ok</title><path d="M230.8 360.6c-39.7-4.1-75.5-13.9-106.1-37.9-3.8-3-7.7-5.9-11.2-9.2-13.4-12.9-14.8-27.6-4.2-42.8 9.1-13 24.3-16.5 40.2-9a62 62 0 0 1 8.8 5.2c57.1 39.2 135.5 40.3 192.9 1.8 5.7-4.4 11.7-7.9 18.8-9.7 13.7-3.5 26.4 1.5 33.8 13.5 8.4 13.7 8.3 27-2.1 37.6-15.9 16.3-34.9 28-56.1 36.3s-42 11.7-63.7 14.3c3.3 3.6 4.8 5.3 6.9 7.4 29.5 29.6 59.1 59.1 88.5 88.8 10 10.1 12.1 22.7 6.6 34.5s-19.5 21.3-32.7 20.4c-8.4-.6-14.9-4.8-20.7-10.6-22.2-22.4-44.9-44.4-66.7-67.2-6.3-6.6-9.4-5.4-15 .4-22.4 23-45.1 45.7-68 68.3-10.3 10.1-22.5 12-34.4 6.2s-20.7-19.1-20.1-32.1c.4-8.8 4.8-15.5 10.8-21.5l87.4-87.5c1.7-2.1 3.5-4.2 6.3-7.2z" fill="none"/><path d="M255 259.2c-70.8-.2-128.9-58.9-128.5-129.9S185-.2 256.5 0s129.2 58.8 128.8 131.3C385 202 326.5 259.4 255 259.2zm64.4-129.7a63.4 63.4 0 1 0-63 63.5 63.1 63.1 0 0 0 62.9-63.5z" fill="none"/></svg>