<svg xmlns="http://www.w3.org/2000/svg" width="473.1" height="473.8" viewBox="0 0 473.1 473.8"><title>phone</title><path d="M374.2 293.5c-9.7-10.1-21.4-15.5-33.8-15.5s-24.1 5.3-34.2 15.4l-31.6 31.5-7.7-4c-3.6-1.8-7-3.5-9.9-5.3-29.6-18.8-56.5-43.3-82.3-75-12.5-15.8-20.9-29.1-27-42.6 8.2-7.5 15.8-15.3 23.2-22.8l8.4-8.5c21-21 21-48.2 0-69.2L152 70.2c-3.1-3.1-6.3-6.3-9.3-9.5-6-6.2-12.3-12.6-18.8-18.6-9.7-9.6-21.3-14.7-33.5-14.7s-24 5.1-34 14.7l-.2.2-34 34.3A73.2 73.2 0 0 0 .5 123.1c-2.4 29.2 6.2 56.4 12.8 74.2 16.2 43.7 40.4 84.2 76.5 127.6 43.8 52.3 96.5 93.6 156.7 122.7 23 10.9 53.7 23.8 88 26l6.3.2c23.1 0 42.5-8.3 57.7-24.8l.4-.5c5.2-6.3 11.2-12 17.5-18.1 4.3-4.1 8.7-8.4 13-12.9 9.9-10.3 15.1-22.3 15.1-34.6s-5.3-24.3-15.4-34.3zM410 398.8c-.1 0-.1.1 0 0-3.9 4.2-7.9 8-12.2 12.2a262.9 262.9 0 0 0-19.3 20c-10.1 10.8-22 15.9-37.6 15.9h-4.6c-29.7-1.9-57.3-13.5-78-23.4C201.7 396 152 357.1 110.7 307.8c-34.1-41.1-56.9-79.1-72-119.9-9.3-24.9-12.7-44.3-11.2-62.6a45.9 45.9 0 0 1 13.8-29.7l34.1-34.1c4.9-4.6 10.1-7.1 15.2-7.1s11.4 3.8 14.6 7l.3.3c6.1 5.7 11.9 11.6 18 17.9l9.5 9.7 27.3 27.3c10.6 10.6 10.6 20.4 0 31-2.9 2.9-5.7 5.8-8.6 8.6-8.4 8.6-16.4 16.6-25.1 24.4l-.5.5c-8.6 8.6-7 17-5.2 22.7l.3.9c7.1 17.2 17.1 33.4 32.3 52.7h.1c27.6 34 56.7 60.5 88.8 80.8a136.5 136.5 0 0 0 12.3 6.8c3.6 1.8 7 3.5 9.9 5.3l1.2.7a21.7 21.7 0 0 0 9.9 2.5c8.3 0 13.5-5.2 15.2-6.9l34.2-34.2c3.4-3.4 8.8-7.5 15.1-7.5s11.3 3.9 14.4 7.3l.2.2 55.1 55.1c10.3 10.2 10.3 20.7.1 31.3zM255.8 112.7a128.7 128.7 0 0 1 104.8 104.8 13.4 13.4 0 0 0 13.3 11.2l2.3-.2a13.5 13.5 0 0 0 11.1-15.6A155.6 155.6 0 0 0 260.5 86.1a13.6 13.6 0 0 0-15.6 11 13.4 13.4 0 0 0 10.9 15.6z"/><path d="M473 209A256.2 256.2 0 0 0 264.2.2a13.5 13.5 0 1 0-4.4 26.6 228.9 228.9 0 0 1 186.6 186.6 13.4 13.4 0 0 0 13.3 11.2l2.3-.2a13.2 13.2 0 0 0 11-15.4z"/></svg>