<svg xmlns="http://www.w3.org/2000/svg" width="512" height="512" viewBox="0 0 512 512"><title>twitter</title><path d="M365.8 205.1c0-2.6 0-5.1-.2-7.7a116.3 116.3 0 0 0 28.2-30.3 108.4 108.4 0 0 1-32.5 8.9 58.1 58.1 0 0 0 24.9-32.5 108.6 108.6 0 0 1-35.9 13.8 56.3 56.3 0 0 0-41.3-19.5c-31.2-.5-56.6 25.9-56.6 58.9a62.9 62.9 0 0 0 1.5 13.7c-47-3-88.7-27.5-116.6-64.4a62.6 62.6 0 0 0-7.7 30.3c0 20.9 10 39.6 25.2 50.5a54.1 54.1 0 0 1-25.6-7.8v.8c0 29.3 19.5 53.8 45.4 59.5a53.6 53.6 0 0 1-14.9 2 51.7 51.7 0 0 1-10.6-1.2c7.2 24 28.1 41.5 52.8 42.1a109.2 109.2 0 0 1-70.2 25.6 107.7 107.7 0 0 1-13.5-.9 152.6 152.6 0 0 0 86.7 27.2c104 .1 160.9-90.5 160.9-169z"/><path d="M512 256C512 114.6 397.4 0 256 0S0 114.6 0 256s114.6 256 256 256 256-114.6 256-256zm-488.7 0C23.3 127.5 127.5 23.3 256 23.3S488.7 127.5 488.7 256 384.5 488.7 256 488.7 23.3 384.5 23.3 256z"/></svg>