<svg id="Capa_1" data-name="Capa 1" xmlns="http://www.w3.org/2000/svg" width="512" height="512" viewBox="0 0 512 512"><title>vk</title><path d="M509.3 373.8a35.1 35.1 0 0 0-1.7-3.3q-13.3-24-50.9-58.9l-.5-.5-.3-.3-.3-.3h-.3q-17.1-16.3-21.6-21.9-8.3-10.7-3.7-21.6 3.2-8.3 24-34.9 10.9-14.1 17.3-22.7 46.1-61.3 40-78.4l-1.6-2.7q-1.6-2.4-8.3-4.4t-17.1-.7l-76.8.5a10 10 0 0 0-5.3.1l-3.5.8-1.3.7-1.1.8a11.8 11.8 0 0 0-2.9 2.8 18.3 18.3 0 0 0-2.7 4.7 435.3 435.3 0 0 1-28.5 60q-9.9 16.5-18.1 28.7t-13.9 17.9a96.7 96.7 0 0 1-10.1 9.2q-4.5 3.5-6.9 2.9l-4.5-1.1a17.7 17.7 0 0 1-6-6.5 29.2 29.2 0 0 1-3.1-10.4q-.8-6.3-.9-10.8t.1-12.8q.3-8.3.3-11.2 0-10.1.4-22t.7-18.8q.3-6.9.3-14.7a61.6 61.6 0 0 0-.9-12.1 41.5 41.5 0 0 0-2.8-8.5 14.4 14.4 0 0 0-5.5-6.4 30.8 30.8 0 0 0-8.9-3.6q-14.1-3.2-36-3.5-49.6-.5-63.7 6.4a35.9 35.9 0 0 0-10.1 8q-4.8 5.9-1.3 6.4 16 2.4 22.7 11.5l1.6 3.2q1.9 3.5 3.7 12.3a123.7 123.7 0 0 1 2.4 19.5 207.5 207.5 0 0 1 0 33.3q-1.3 13.9-2.5 21.6a43.2 43.2 0 0 1-3.6 12.5 52.9 52.9 0 0 1-3.2 5.9 4.6 4.6 0 0 1-1.3 1.3 20 20 0 0 1-7.2 1.3q-3.7 0-9.1-3.7a64 64 0 0 1-11.1-10.3 137.2 137.2 0 0 1-12.9-18.3q-7.2-11.7-14.9-27.7l-4.3-7.7q-4-7.5-10.9-21.7t-12.3-27.6a17.6 17.6 0 0 0-6.4-8.5l-1.3-.8a18.2 18.2 0 0 0-4.3-2.3 28.3 28.3 0 0 0-6.1-1.7l-73 .5q-11.2 0-15.2 5.1L.8 130a8.6 8.6 0 0 0-.8 4.3 21.2 21.2 0 0 0 1.6 7.2q16 37.6 34.8 72.5T69 270.2q13.9 21.3 28.3 40.3t19.1 24.3q4.7 5.3 7.3 8l6.7 6.4a158.1 158.1 0 0 0 18.8 15.3 320.6 320.6 0 0 0 27.4 17.5 149 149 0 0 0 35.1 14.1 121.2 121.2 0 0 0 38.9 4.4h30.7q9.3-.8 14.1-5.9l1.1-1.3a17.7 17.7 0 0 0 2-4.9 27.1 27.1 0 0 0 .9-7.3 87.8 87.8 0 0 1 1.7-20.7q2-9.2 4.5-13.9a34.1 34.1 0 0 1 5.7-7.9 23.2 23.2 0 0 1 4.5-3.9l2.1-.9q6.4-2.1 15.1 4.1a88.5 88.5 0 0 1 16.3 15.5q7.6 9.2 18.3 20.7t18.7 17.1l5.3 3.2a64.9 64.9 0 0 0 13.9 5.9q8.5 2.7 14.9 1.3l68.2-1.1q10.1 0 15.7-3.3t6.7-7.3a20.6 20.6 0 0 0 .1-9.1 33.5 33.5 0 0 0-1.8-7z" fill="none"/></svg>