<svg xmlns="http://www.w3.org/2000/svg"><symbol viewBox="0 0 512 512" id="phone" xmlns="http://www.w3.org/2000/svg"><title>phone</title><path d="M389.3 338.7c-16.7-16.5-37.6-16.5-54.2 0-12.7 12.6-25.4 25.1-37.8 37.9-3.4 3.5-6.3 4.3-10.4 1.9-8.2-4.5-16.9-8.1-24.8-13-36.8-23.1-67.5-52.8-94.8-86.3-13.5-16.6-25.6-34.4-34-54.4-1.7-4-1.4-6.7 1.9-10 12.7-12.3 25-24.8 37.5-37.4 17.4-17.5 17.4-37.9-.1-55.5l-29.9-29.8c-10.2-10.3-20.3-20.6-30.7-30.7-16.7-16.3-37.6-16.3-54.2.1-12.8 12.5-25 25.4-38 37.8S1.7 124.7.4 141c-2 26.5 4.5 51.6 13.6 76 18.8 50.5 47.3 95.4 81.9 136.5 46.8 55.5 102.6 99.5 168 131.3 29.4 14.3 59.9 25.3 93 27.1 22.8 1.3 42.6-4.5 58.5-22.3 10.9-12.1 23.1-23.2 34.6-34.8 17-17.3 17.2-38.1.2-55.2q-30.4-30.6-60.9-60.9zm-20.4-84.9l39.3-6.7A176.5 176.5 0 0 0 259 102.3l-5.5 39.5a136.4 136.4 0 0 1 115.5 112z"/><path d="M430.4 82.9A289.9 289.9 0 0 0 264.2 0l-5.5 39.5a252.9 252.9 0 0 1 214 207.5l39.3-6.7a292 292 0 0 0-81.6-157.4z"/></symbol></svg>