<svg id="Layer_1" data-name="Layer 1" xmlns="http://www.w3.org/2000/svg" width="191.1" height="18.9" viewBox="0 0 191.1 18.9"><title>DOOR HOURSE</title><path d="M4.1 19v-.5h.7a1.8 1.8 0 0 0 1.6-.7 4.2 4.2 0 0 0 .3-2V4.1A3.7 3.7 0 0 0 6.3 2a1.9 1.9 0 0 0-1.5-.6h-.7V.9h7.3a15.9 15.9 0 0 1 6.1.9 7.3 7.3 0 0 1 3.4 3.1 9.5 9.5 0 0 1 1.3 4.9 9 9 0 0 1-2.3 6.3Q17.4 19 12.1 19zm5.1-1.3a13.5 13.5 0 0 0 2.8.3 6.7 6.7 0 0 0 5.1-2.2 8.3 8.3 0 0 0 2-5.9 8.2 8.2 0 0 0-2-5.9 6.8 6.8 0 0 0-5.2-2 11.2 11.2 0 0 0-2.7.4zM33.1.5a8.1 8.1 0 0 1 6.1 2.7 9.2 9.2 0 0 1 2.6 6.6 9.5 9.5 0 0 1-2.6 6.8 8.6 8.6 0 0 1-12.5.1 9.5 9.5 0 0 1-2.5-6.8 9.1 9.1 0 0 1 2.9-7 8.6 8.6 0 0 1 6-2.4zm-.3 1A4.7 4.7 0 0 0 29 3.3q-1.8 2.2-1.8 6.5t1.9 6.8a4.6 4.6 0 0 0 3.8 1.8 5.2 5.2 0 0 0 4.2-2q1.6-2 1.6-6.2t-1.8-6.9a4.9 4.9 0 0 0-4-1.8zm19.9-1a8.1 8.1 0 0 1 6.1 2.7 9.2 9.2 0 0 1 2.6 6.6 9.5 9.5 0 0 1-2.6 6.8 8.6 8.6 0 0 1-12.5.1 9.5 9.5 0 0 1-2.5-6.8 9.1 9.1 0 0 1 2.9-7 8.6 8.6 0 0 1 6-2.4zm-.3 1a4.7 4.7 0 0 0-3.9 1.8q-1.8 2.2-1.8 6.5t1.9 6.8a4.6 4.6 0 0 0 3.8 1.8 5.2 5.2 0 0 0 4.2-2q1.6-2 1.6-6.2t-1.7-6.9a4.9 4.9 0 0 0-4-1.8zM80.7 19h-4.8l-6.1-8.4H68v5.2a3.7 3.7 0 0 0 .4 2.1 1.9 1.9 0 0 0 1.5.6h.7v.5h-7.7v-.5h.7a1.8 1.8 0 0 0 1.6-.7 4.2 4.2 0 0 0 .3-2V4.1a3.7 3.7 0 0 0-.4-2.1 1.9 1.9 0 0 0-1.5-.6h-.7V.9h6.5a15.5 15.5 0 0 1 4.2.4 4.8 4.8 0 0 1 2.3 1.5 4 4 0 0 1 .9 2.7 4.2 4.2 0 0 1-1.1 2.9 6.1 6.1 0 0 1-3.3 1.7l3.7 5.2a9.2 9.2 0 0 0 2.2 2.4 5.5 5.5 0 0 0 2.4.7zM68 9.7h.7a5.8 5.8 0 0 0 3.9-1.1 3.6 3.6 0 0 0 1.3-2.8 3.7 3.7 0 0 0-1-2.8 3.8 3.8 0 0 0-2.8-1l-2.1.2zm24.9-.4h8.3V4.2a6 6 0 0 0-.2-1.8 1.2 1.2 0 0 0-.6-.6 2.4 2.4 0 0 0-1.2-.3h-.6V.9h7.7v.5h-.6a2.5 2.5 0 0 0-1.2.3 1.1 1.1 0 0 0-.6.6 6.4 6.4 0 0 0-.2 1.8v11.7a6 6 0 0 0 .2 1.8 1.2 1.2 0 0 0 .5.6 2.5 2.5 0 0 0 1.2.3h.6v.5h-7.6v-.5h.6a1.9 1.9 0 0 0 1.6-.7 3.9 3.9 0 0 0 .3-2v-5.5h-8.2v5.5a6 6 0 0 0 .2 1.8 1.2 1.2 0 0 0 .6.6 2.4 2.4 0 0 0 1.2.3h.6v.5h-7.7v-.5h.6a1.9 1.9 0 0 0 1.6-.7 4.1 4.1 0 0 0 .3-2V4.2a6.1 6.1 0 0 0-.2-1.8 1.2 1.2 0 0 0-.5-.6 2.5 2.5 0 0 0-1.2-.3h-.6V.9h7.7v.5h-.6a2.5 2.5 0 0 0-1.2.3 1.2 1.2 0 0 0-.6.6 6.2 6.2 0 0 0-.2 1.8zM116.8.5a8.1 8.1 0 0 1 6.1 2.7 9.2 9.2 0 0 1 2.6 6.6 9.5 9.5 0 0 1-2.6 6.8 8.6 8.6 0 0 1-12.5.1 9.5 9.5 0 0 1-2.5-6.8 9.1 9.1 0 0 1 2.9-7 8.6 8.6 0 0 1 6-2.4zm-.3 1a4.7 4.7 0 0 0-3.9 1.8q-1.8 2.2-1.8 6.5t1.9 6.8a4.6 4.6 0 0 0 3.8 1.8 5.2 5.2 0 0 0 4.2-2q1.6-2 1.6-6.2t-1.8-6.9a4.9 4.9 0 0 0-3.9-1.8zm22.9-.1V.9h6.4v.5h-.7a1.8 1.8 0 0 0-1.6.9 4.1 4.1 0 0 0-.3 1.9v7.3a13 13 0 0 1-.5 4.2 5.3 5.3 0 0 1-2.1 2.6 7.5 7.5 0 0 1-4.3 1.1 8 8 0 0 1-4.5-1 5.5 5.5 0 0 1-2.2-2.7 15.3 15.3 0 0 1-.4-4.4v-7a3.5 3.5 0 0 0-.5-2.2 1.9 1.9 0 0 0-1.5-.5h-.7V.9h7.8v.5h-.7a1.8 1.8 0 0 0-1.6.7 3.9 3.9 0 0 0-.3 2V12a17.2 17.2 0 0 0 .2 2.4 5.1 5.1 0 0 0 .7 2.1 3.8 3.8 0 0 0 1.5 1.2 5 5 0 0 0 2.3.5 6.4 6.4 0 0 0 3.2-.8 4.1 4.1 0 0 0 1.9-2 11.5 11.5 0 0 0 .5-4.1V4.1a3.7 3.7 0 0 0-.4-2.1 1.9 1.9 0 0 0-1.5-.6zm25 17.6h-4.8l-6.1-8.4h-1.9v5.2a3.7 3.7 0 0 0 .4 2.1 1.9 1.9 0 0 0 1.5.6h.7v.5h-7.7v-.5h.7a1.8 1.8 0 0 0 1.6-.7 4.2 4.2 0 0 0 .3-2V4.1a3.7 3.7 0 0 0-.4-2.1 1.9 1.9 0 0 0-1.5-.6h-.7V.9h6.5a15.5 15.5 0 0 1 4.2.4 4.8 4.8 0 0 1 2.3 1.5 4 4 0 0 1 .9 2.7 4.2 4.2 0 0 1-1.1 2.9 6.1 6.1 0 0 1-3.3 1.7l3.7 5.2a9.2 9.2 0 0 0 2.2 2.4 5.5 5.5 0 0 0 2.4.7zm-12.8-9.3h.7a5.8 5.8 0 0 0 3.9-1.1 3.6 3.6 0 0 0 1.3-2.8 3.7 3.7 0 0 0-1-2.8 3.8 3.8 0 0 0-2.8-1l-2.1.3zm25-9.2v6.3h-.5a7.8 7.8 0 0 0-.9-2.9 4.5 4.5 0 0 0-1.8-1.7 4.8 4.8 0 0 0-2.4-.6 3.2 3.2 0 0 0-2.3.8 2.6 2.6 0 0 0-.9 1.9 2.3 2.3 0 0 0 .6 1.5 14.7 14.7 0 0 0 3.9 2.7 27 27 0 0 1 3.4 2.1 5 5 0 0 1 1.4 1.7 4.5 4.5 0 0 1 .5 2.1 4.7 4.7 0 0 1-1.6 3.5 5.7 5.7 0 0 1-4.1 1.5h-1.5l-1.7-.5-1.6-.4-.5.2a1.6 1.6 0 0 0-.3.8h-.3v-6.3h.5a8.8 8.8 0 0 0 .9 2.9 4.4 4.4 0 0 0 1.8 1.6 5.5 5.5 0 0 0 2.6.6 3.7 3.7 0 0 0 2.6-.9 2.7 2.7 0 0 0 1-2.1 2.8 2.8 0 0 0-.4-1.3 4 4 0 0 0-1.1-1.3l-2.8-1.7a27.3 27.3 0 0 1-3.3-2 5.6 5.6 0 0 1-1.5-1.7 4.2 4.2 0 0 1-.5-2 4.4 4.4 0 0 1 1.5-3.3 5.3 5.3 0 0 1 3.8-1.5 7.6 7.6 0 0 1 3 .7l1 .3.6-.2a1.6 1.6 0 0 0 .4-.8zm8.3 1.4v7.2h3.9a3.2 3.2 0 0 0 2.1-.5 3 3 0 0 0 .8-2.2h.5v6.3h-.5a6.9 6.9 0 0 0-.4-1.7 1.7 1.7 0 0 0-.8-.7 4 4 0 0 0-1.7-.3h-3.9v6a5.6 5.6 0 0 0 .1 1.5l.4.4 1 .2h3l2.2-.2a3.3 3.3 0 0 0 1.3-.8 10.2 10.2 0 0 0 1.7-2.5h.5l-1.4 4.4h-13.9v-.5h.6a2.5 2.5 0 0 0 1.2-.3 1.1 1.1 0 0 0 .6-.6 6.3 6.3 0 0 0 .2-1.7V4.1A3.9 3.9 0 0 0 182 2a2 2 0 0 0-1.6-.5h-.6V.9h13.8l.2 3.9h-.5a6.3 6.3 0 0 0-.6-2 2.1 2.1 0 0 0-1-.8l-1.9-.2z" transform="translate(-4.1 -.5)" style="isolation:isolate" fill="#f1f1f1" id="DOOR_HOURSE" data-name="DOOR HOURSE"/></svg>