<svg xmlns="http://www.w3.org/2000/svg" width="74" height="80.6" viewBox="0 0 74 80.6"><title>service-1</title><path d="M37 15.8a21.7 21.7 0 0 0-11 40.4v3.2h-1.1a2.7 2.7 0 0 0-2.7 2.7v15.8a2.7 2.7 0 0 0 2.7 2.7h24.2a2.7 2.7 0 0 0 2.7-2.7V62.1a2.7 2.7 0 0 0-2.7-2.7H48v-3.1a21.5 21.5 0 0 0 10.7-18.8A21.7 21.7 0 0 0 37 15.8zm-1.1 23.1a1.1 1.1 0 1 1 1.1 1 1.1 1.1 0 0 1-1.1-1.1zm10.5 25.9v2.6H27.6v-2.6zM27.6 75.3v-2.6h18.8v2.6zm16.7-23.1h-.1a2.7 2.7 0 0 0-1.6 2.4v4.8h-3V44.7a6.4 6.4 0 1 0-5.3 0v14.8h-3v-4.8a2.7 2.7 0 0 0-1.6-2.4h-.1a16.4 16.4 0 1 1 23.8-14.8 16.2 16.2 0 0 1-9.1 14.7zM37 12.8a2.7 2.7 0 0 0 2.7-2.7V2.7a2.7 2.7 0 0 0-5.3 0v7.5a2.7 2.7 0 0 0 2.6 2.6zm34.3 21.5H64a2.7 2.7 0 0 0 0 5.3h7.4a2.7 2.7 0 0 0 0-5.3zm-61.3 0H2.7a2.7 2.7 0 0 0 0 5.3H10a2.7 2.7 0 0 0 0-5.3zm45.8-13.8a2.7 2.7 0 0 0 1.9-.8l5.1-5.1a2.7 2.7 0 0 0-3.7-3.8L53.9 16a2.7 2.7 0 0 0 1.9 4.5zm-39.5-.8a2.7 2.7 0 0 0 3.8-3.7L15 10.9a2.7 2.7 0 0 0-3.8 3.8z" fill="#00a651"/></svg>