<svg xmlns="http://www.w3.org/2000/svg" width="75" height="75" viewBox="0 0 75 75"><title>service-5</title><path d="M38.5 27L7.1 58.4l-.5.5a6.727 6.727 0 0 0 10 9L48 36.5a19.2 19.2 0 0 1-5.6-3.8 18.7 18.7 0 0 1-3.9-5.7zM14.8 65.5a3.3 3.3 0 0 1-2.7 1.2 3.9 3.9 0 0 1-2.8-1.1 3.9 3.9 0 0 1-1.2-2.8A3.7 3.7 0 0 1 9.3 60a3.9 3.9 0 0 1 5.5 5.5zm48.9-42.4a2.7 2.7 0 0 1-3.5-.2l-8-8a2.7 2.7 0 0 1-.3-3.5l4.3-6h-.4a13.7 13.7 0 1 0 9.7 23.4 13.9 13.9 0 0 0 4-10.1z" fill="none"/><path d="M74 13.1a2.7 2.7 0 0 0-3.4-1.7l-.8.4-7.5 5.6-4.7-4.7 5.5-7.6a2.7 2.7 0 0 0-.6-3.8l-.7-.3a19.1 19.1 0 0 0-19.4 4.6A19.3 19.3 0 0 0 36.9 21L3.3 54.6a12.1 12.1 0 0 0 17 17.1L54 38.1h1.9a19 19 0 0 0 13.5-5.6A19.2 19.2 0 0 0 74 13.1zM16.5 67.9a6.727 6.727 0 0 1-10-9l.5-.5L38.5 27a18.7 18.7 0 0 0 3.9 5.6 19.2 19.2 0 0 0 5.6 3.8zm49.1-39.1a13.7 13.7 0 1 1-9.7-23.4h.4l-4.3 6a2.7 2.7 0 0 0 .3 3.5l8 8a2.7 2.7 0 0 0 3.5.2l5.8-4.4a13.9 13.9 0 0 1-4 10.1z" fill="#00a651"/><path d="M9.3 60a3.7 3.7 0 0 0-1.2 2.8 3.9 3.9 0 0 0 1.2 2.8 3.9 3.9 0 0 0 2.8 1.2 3.3 3.3 0 0 0 2.7-1.2A3.925 3.925 0 0 0 9.3 60z" fill="#00a651"/></svg>