<svg xmlns="http://www.w3.org/2000/svg" width="76" height="76" viewBox="0 0 76 76"><title>service-4</title><path fill="none" d="M15.3 49.1l11.6 11.6 5.2-5.1-11.7-11.7-5.1 5.2zM6.8 67.7l1.5 1.6L21.4 64 12 54.6 6.8 67.7zm18-28.2l11.7 11.7 22.7-22.7-11.7-11.7zm25-13.4a3.1 3.1 0 0 1 0 4.4L38.6 41.8a3.1 3.1 0 0 1-4.4 0h-.1a3.1 3.1 0 0 1 .1-4.3l11.2-11.3a3.1 3.1 0 0 1 4.4 0zm2.1-13.7l11.7 11.7 4.9-4.8L56.8 7.5l-4.9 4.9z"/><path d="M75.1 17.1L58.9.9a3.1 3.1 0 0 0-4.4 0l-45.8 46a3.1 3.1 0 0 0-.7 1L.2 67.3a3.1 3.1 0 0 0 .7 3.4l4.5 4.5a3.1 3.1 0 0 0 3.4.7L28.1 68a3.1 3.1 0 0 0 1-.7l46-45.9a3.1 3.1 0 0 0 0-4.3zM8.3 69.3l-1.6-1.6L12 54.6l9.4 9.4zm18.6-8.5L15.2 49.1l5.1-5.1L32 55.6zm9.5-9.5L24.8 39.5l22.7-22.7 11.7 11.7zm27.2-27.2L51.9 12.4l4.9-4.9 11.7 11.8z" fill="#00a651"/><path d="M34.2 37.4a3.1 3.1 0 0 0-.1 4.3h.1a3.1 3.1 0 0 0 4.4 0l11.2-11.1a3.111 3.111 0 1 0-4.4-4.4z" fill="#00a651"/></svg>