<svg xmlns="http://www.w3.org/2000/svg" width="92" height="79.7" viewBox="0 0 92 79.7"><title>service-2</title><path fill="none" d="M79.2 21.8L46 7.5 12.8 21.8 46 35.9l33.2-14.1z"/><path d="M2.2 25.1l42.3 18.1a3.6 3.6 0 0 0 2.8 0l42.5-18.1a3.6 3.6 0 0 0 0-6.6L47.4.3a3.6 3.6 0 0 0-2.8 0L2.2 18.5a3.6 3.6 0 0 0 0 6.6zM46 7.5l33.2 14.3L46 35.9 12.8 21.8zm45.7 49a3.6 3.6 0 0 0-4.7-1.9L46 72.1 5 54.6a3.6 3.6 0 1 0-2.8 6.6l42.3 18.2a3.6 3.6 0 0 0 2.9 0l42.4-18.2a3.6 3.6 0 0 0 1.9-4.7z" fill="#00a651"/><path d="M86.9 36.5L46 54 5 36.5a3.6 3.6 0 1 0-2.8 6.6l42.3 18.1a3.6 3.6 0 0 0 2.8 0l42.5-18a3.6 3.6 0 1 0-2.8-6.6z" fill="#00a651"/></svg>