<svg xmlns="http://www.w3.org/2000/svg"><symbol id="viber" viewBox="0 0 512 512"><circle style="fill:#6F3FAA;" cx="256" cy="256" r="256"/><path style="fill:#512D84;" d="M367.061,140.443c-62.312-15.05-124.735-32.654-188.637-10.288 c-41.374,15.515-41.374,60.337-39.65,98.263c0,10.343-12.067,24.135-6.896,36.202c10.343,34.478,18.963,68.956,55.165,86.195 c5.172,3.448,0,10.343,3.448,15.515c-1.724,0-5.172,1.724-5.172,3.448c0,8.263,3.708,20.902,1.245,29.05L296.57,508.788 c113.09-18.01,201.478-110.068,213.914-224.921L367.061,140.443z"/><path style="fill:#FFFFFF;" d="M391.427,179.924l-0.084-0.338c-6.84-27.653-37.678-57.325-65.998-63.498l-0.319-0.066 c-45.806-8.738-92.251-8.738-138.047,0l-0.329,0.066c-28.31,6.173-59.149,35.847-65.998,63.498l-0.076,0.338 c-8.456,38.617-8.456,77.781,0,116.398l0.076,0.338c6.558,26.472,35.099,54.782,62.362,62.567v30.868 c0,11.173,13.615,16.66,21.357,8.597l31.275-32.509c6.784,0.379,13.571,0.591,20.356,0.591c23.057,0,46.125-2.181,69.023-6.549 l0.319-0.066c28.32-6.173,59.158-35.847,65.998-63.498l0.084-0.338C399.882,257.705,399.882,218.543,391.427,179.924z M366.676,290.723c-4.567,18.041-27.981,40.469-46.585,44.613c-24.355,4.632-48.904,6.611-73.428,5.932 c-0.488-0.014-0.957,0.176-1.296,0.526c-3.481,3.572-22.835,23.442-22.835,23.442l-24.288,24.928 c-1.776,1.852-4.896,0.591-4.896-1.964v-51.136c0-0.845-0.603-1.562-1.433-1.726c-0.005-0.002-0.009-0.002-0.014-0.003 c-18.604-4.144-42.01-26.572-46.585-44.613c-7.611-34.906-7.611-70.292,0-105.198c4.575-18.041,27.981-40.469,46.585-44.613 c42.536-8.09,85.664-8.09,128.191,0c18.613,4.144,42.018,26.572,46.585,44.613C374.296,220.431,374.296,255.817,366.676,290.723z" /><path style="fill:#FFFFFF;" d="M296.47,314.327c-2.86-0.869-5.585-1.452-8.118-2.501c-26.231-10.883-50.371-24.923-69.492-46.444 c-10.874-12.238-19.385-26.055-26.579-40.677c-3.412-6.934-6.287-14.139-9.218-21.299c-2.672-6.528,1.264-13.272,5.408-18.192 c3.889-4.617,8.894-8.149,14.314-10.754c4.23-2.032,8.402-0.86,11.492,2.725c6.678,7.752,12.814,15.9,17.78,24.886 c3.055,5.527,2.217,12.283-3.32,16.044c-1.346,0.914-2.572,1.988-3.825,3.02c-1.1,0.905-2.134,1.819-2.888,3.044 c-1.377,2.241-1.443,4.886-0.557,7.323c6.827,18.761,18.334,33.351,37.219,41.21c3.022,1.257,6.056,2.72,9.538,2.315 c5.83-0.681,7.718-7.077,11.804-10.418c3.993-3.265,9.097-3.308,13.398-0.586c4.303,2.724,8.473,5.646,12.619,8.601 c4.07,2.9,8.121,5.735,11.874,9.042c3.61,3.179,4.853,7.349,2.82,11.662c-3.72,7.901-9.135,14.472-16.944,18.668 C301.59,313.178,298.956,313.561,296.47,314.327C293.61,313.458,298.956,313.561,296.47,314.327z"/><path style="fill:#FFFFFF;" d="M256.071,165.426c34.309,0.962,62.49,23.731,68.529,57.651c1.029,5.78,1.395,11.688,1.853,17.555 c0.193,2.467-1.205,4.811-3.867,4.844c-2.75,0.033-3.987-2.269-4.167-4.734c-0.353-4.882-0.598-9.787-1.271-14.627 c-3.551-25.559-23.931-46.704-49.371-51.241c-3.829-0.683-7.745-0.862-11.624-1.269c-2.451-0.257-5.661-0.405-6.204-3.453 c-0.455-2.555,1.701-4.589,4.134-4.72C254.742,165.393,255.407,165.424,256.071,165.426 C290.382,166.388,255.407,165.424,256.071,165.426z"/><path style="fill:#FFFFFF;" d="M308.212,233.019c-0.057,0.429-0.086,1.436-0.338,2.384c-0.91,3.444-6.134,3.875-7.335,0.4 c-0.357-1.031-0.41-2.205-0.412-3.315c-0.012-7.266-1.591-14.526-5.256-20.849c-3.767-6.499-9.523-11.96-16.272-15.267 c-4.082-1.998-8.495-3.241-12.969-3.98c-1.955-0.324-3.931-0.519-5.896-0.793c-2.381-0.331-3.653-1.848-3.539-4.194 c0.105-2.198,1.712-3.781,4.108-3.644c7.873,0.446,15.479,2.15,22.48,5.856c14.234,7.539,22.366,19.437,24.74,35.326 c0.107,0.721,0.279,1.433,0.334,2.155C307.991,228.88,308.076,230.665,308.212,233.019 C308.155,233.446,308.076,230.665,308.212,233.019z"/><path style="fill:#FFFFFF;" d="M286.872,232.188c-2.87,0.052-4.406-1.538-4.703-4.168c-0.205-1.834-0.369-3.694-0.807-5.48 c-0.862-3.517-2.731-6.775-5.689-8.93c-1.396-1.017-2.979-1.758-4.636-2.238c-2.105-0.609-4.293-0.441-6.392-0.955 c-2.281-0.559-3.543-2.407-3.184-4.546c0.326-1.948,2.22-3.468,4.349-3.313c13.302,0.96,22.809,7.837,24.166,23.497 c0.097,1.105,0.209,2.272-0.036,3.331C289.518,231.193,288.178,232.1,286.872,232.188 C284.001,232.239,288.178,232.1,286.872,232.188z"/><path style="fill:#D1D1D1;" d="M391.427,179.924l-0.084-0.338c-3.834-15.501-15.212-31.635-29.458-43.911l-19.259,17.068 c11.452,9.125,21.264,21.766,24.052,32.78c7.62,34.907,7.62,70.292,0,105.2c-4.567,18.041-27.982,40.469-46.585,44.613 c-24.355,4.632-48.904,6.611-73.428,5.932c-0.488-0.014-0.957,0.176-1.296,0.526c-3.481,3.572-22.835,23.442-22.835,23.442 l-24.288,24.928c-1.776,1.852-4.896,0.593-4.896-1.964v-51.136c0-0.845-0.603-1.562-1.433-1.726c-0.005,0-0.009-0.002-0.014-0.002 c-10.573-2.355-22.692-10.618-32.028-20.621l-19.03,16.863c11.885,12.929,27.214,23.381,42.168,27.651v30.868 c0,11.173,13.615,16.66,21.357,8.597l31.275-32.509c6.784,0.379,13.569,0.591,20.356,0.591c23.057,0,46.125-2.181,69.023-6.549 l0.319-0.065c28.32-6.173,59.158-35.845,65.998-63.498l0.084-0.338C399.882,257.705,399.882,218.543,391.427,179.924z"/><path style="fill:#FFFFFF;" d="M296.47,314.327C298.956,313.561,293.61,313.458,296.47,314.327L296.47,314.327z"/><path style="fill:#D1D1D1;" d="M317.921,281.664c-3.753-3.305-7.806-6.142-11.874-9.042c-4.146-2.955-8.316-5.877-12.619-8.601 c-4.301-2.722-9.404-2.679-13.398,0.586c-4.086,3.341-5.973,9.737-11.804,10.418c-3.481,0.405-6.516-1.059-9.538-2.315 c-11.619-4.834-20.435-12.226-27.098-21.559l-14.16,12.55c0.481,0.557,0.94,1.129,1.429,1.679 c19.122,21.521,43.263,35.561,69.492,46.444c2.531,1.05,5.258,1.634,8.118,2.501c-2.86-0.869,2.488-0.765,0,0 c2.488-0.765,5.12-1.15,7.327-2.332c7.811-4.196,13.224-10.768,16.944-18.668C322.774,289.013,321.531,284.843,317.921,281.664z"/><path style="fill:#FFFFFF;" d="M256.159,165.431c-0.029,0-0.057-0.003-0.086-0.003 C256.045,165.426,256.081,165.428,256.159,165.431z"/><path style="fill:#FFFFFF;" d="M256.072,165.426c0.029,0,0.057,0.003,0.086,0.003C258.062,165.497,289.03,166.35,256.072,165.426z" /><path style="fill:#D1D1D1;" d="M305.285,185.837l-6.037,5.351c9.487,9.23,16.029,21.463,17.899,34.925 c0.672,4.842,0.919,9.745,1.272,14.627c0.179,2.467,1.415,4.768,4.167,4.736c2.663-0.033,4.06-2.376,3.867-4.844 c-0.459-5.866-0.824-11.776-1.853-17.555C321.957,208.229,315.07,195.518,305.285,185.837z"/><path style="fill:#D1D1D1;" d="M307.521,224.939c-1.729-11.578-6.532-21.026-14.51-28.224l-6.02,5.335 c3.113,2.763,5.806,6.008,7.88,9.587c3.665,6.323,5.244,13.583,5.256,20.849c0.002,1.11,0.055,2.284,0.412,3.317 c1.203,3.477,6.425,3.046,7.335-0.4c0.252-0.95,0.281-1.957,0.338-2.384c-0.057,0.429-0.138-2.353,0,0 c-0.138-2.353-0.222-4.139-0.357-5.923C307.802,226.371,307.629,225.659,307.521,224.939z"/><path style="fill:#FFFFFF;" d="M308.212,233.019C308.076,230.665,308.155,233.446,308.212,233.019L308.212,233.019z"/><path style="fill:#FFFFFF;" d="M286.872,232.188c0.045-0.003,0.088-0.026,0.131-0.031c-0.121,0-0.307,0.003-0.498,0.01 C286.629,232.17,286.742,232.189,286.872,232.188z"/><path style="fill:#FFFFFF;" d="M286.872,232.188c-0.129,0.002-0.243-0.017-0.367-0.021 C285.884,232.184,285.243,232.217,286.872,232.188z"/><path style="fill:#FFFFFF;" d="M287.003,232.157c-0.045,0.005-0.088,0.028-0.131,0.031 C287.208,232.165,287.179,232.157,287.003,232.157z"/><path style="fill:#D1D1D1;" d="M280.814,207.525l-6.128,5.432c0.338,0.205,0.669,0.419,0.99,0.652 c2.958,2.155,4.827,5.413,5.689,8.93c0.438,1.786,0.6,3.644,0.807,5.48c0.283,2.513,1.71,4.058,4.336,4.148 c0.191-0.005,0.379-0.009,0.498-0.01c1.264-0.14,2.531-1.026,2.936-2.774c0.245-1.057,0.133-2.226,0.036-3.331 C289.216,217.297,285.906,211.29,280.814,207.525z"/></symbol><symbol id="telegram" viewBox="0 0 512 512"><circle style="fill:#7AA5DA;" cx="256" cy="256" r="256"/><path style="fill:#5786B5;" d="M511.924,250.077L398.283,136.625l-185.108,225.63l133.284,133.284 C443.197,458.988,512,365.535,512,256C512,254.019,511.969,252.045,511.924,250.077z"/><path style="fill:#FFFFFF;" d="M383.717,133.52c10.206-3.982,20.756,4.948,18.515,15.67l-45.77,218.781 c-2.138,10.257-14.188,14.877-22.635,8.671l-69.094-50.717l-35.219,35.961c-6.189,6.31-16.86,3.741-19.515-4.672l-25.41-80.662 l-68.112-20.118c-8.947-2.638-9.464-15.084-0.793-18.48L383.717,133.52z M350.118,182.065c2.982-2.638-0.483-7.292-3.862-5.189 l-147.015,91.177c-2.586,1.603-3.775,4.758-2.862,7.671l20.049,88.04c0.397,1.345,2.327,1.155,2.5-0.241l4.482-67.094 c0.172-1.655,0.965-3.172,2.207-4.275L350.118,182.065z"/><path style="fill:#9EC2E5;" d="M346.257,176.876c3.379-2.103,6.844,2.551,3.862,5.189l-124.5,110.089 c-1.241,1.103-2.034,2.62-2.207,4.275l-4.482,67.094c-0.172,1.396-2.103,1.586-2.5,0.241l-20.049-88.04 c-0.914-2.913,0.276-6.068,2.862-7.671L346.257,176.876z"/><path style="fill:#FFFFFF;" d="M217.154,364.678c-3.241-1.155-5.982-3.741-7.154-7.465l-25.41-80.662l-68.112-20.118 c-8.947-2.638-9.464-15.084-0.793-18.48L383.717,133.52c6.585-2.569,13.326,0.241,16.653,5.448 c-0.621-0.948-1.362-1.827-2.189-2.603L216.343,284.81v6.499l-1-0.724l1,40.926v32.823c0.259,0.121,0.534,0.224,0.81,0.31V364.678 L217.154,364.678z"/><path style="fill:#D1D1D1;" d="M402.525,145.518c0.052,1.172-0.034,2.413-0.293,3.672l-45.77,218.781 c-2.138,10.257-14.188,14.877-22.635,8.671l-69.094-50.717l-48.39-34.616v-6.499l181.838-148.446 c0.827,0.776,1.569,1.655,2.189,2.603c0.121,0.207,0.241,0.396,0.362,0.586c0.103,0.207,0.224,0.414,0.328,0.603 c0.103,0.207,0.207,0.414,0.293,0.621c0.103,0.224,0.19,0.431,0.276,0.655c0.069,0.19,0.155,0.396,0.224,0.621 c0.224,0.672,0.396,1.362,0.517,2.086C402.439,144.587,402.491,145.036,402.525,145.518z"/><path style="fill:#D1D1D1;" d="M264.733,325.925l-35.219,35.961c-0.293,0.293-0.603,0.586-0.914,0.845 c-0.31,0.259-0.621,0.483-0.948,0.707c-0.017,0.017-0.017,0.017-0.017,0.017c-0.655,0.431-1.327,0.793-2.034,1.086 c-0.362,0.138-0.707,0.276-1.069,0.362c-1.5,0.448-3.034,0.569-4.551,0.414c-0.396-0.034-0.793-0.103-1.172-0.172 c-0.052,0-0.103-0.017-0.155-0.034c-0.379-0.103-0.759-0.207-1.138-0.328c-0.121-0.034-0.241-0.069-0.362-0.138l-0.81-33.133 v-40.202L264.733,325.925z"/><path style="fill:#DADDE0;" d="M228.6,362.73c-0.31,0.259-0.621,0.5-0.948,0.724v-0.017 C227.98,363.213,228.29,362.989,228.6,362.73z"/><path style="fill:#DADDE0;" d="M227.652,363.437v0.017c0,0,0-0.017-0.017,0C227.635,363.454,227.635,363.454,227.652,363.437z"/><path style="fill:#DADDE0;" d="M225.601,364.541c0.707-0.293,1.379-0.655,2.034-1.086 C226.98,363.885,226.29,364.247,225.601,364.541z"/><path style="fill:#DADDE0;" d="M219.981,365.316c1.517,0.155,3.051,0.034,4.551-0.414c-1.086,0.345-2.207,0.5-3.327,0.5 c-0.345,0-0.69-0.017-1.017-0.052C220.119,365.351,220.05,365.351,219.981,365.316z"/><path style="fill:#FFFFFF;" d="M221.205,365.402c-0.345,0-0.69-0.017-1.017-0.052C220.515,365.385,220.86,365.402,221.205,365.402z "/><path style="fill:#FFFFFF;" d="M219.981,365.316c0.069,0.034,0.138,0.034,0.207,0.034c-0.362-0.017-0.69-0.069-1.034-0.138 C219.429,365.265,219.705,365.299,219.981,365.316z"/><path style="fill:#DADDE0;" d="M219.981,365.316c-0.276-0.017-0.552-0.052-0.827-0.103c-0.121-0.017-0.241-0.034-0.345-0.069 C219.188,365.213,219.584,365.282,219.981,365.316z"/><path style="fill:#DADDE0;" d="M217.516,364.782c0.379,0.121,0.759,0.224,1.138,0.328c-0.155-0.034-0.31-0.069-0.465-0.103 c-0.069-0.017-0.138-0.034-0.19-0.069C217.843,364.903,217.671,364.851,217.516,364.782z"/><path style="fill:#FFFFFF;" d="M218.188,365.006c0.155,0.034,0.31,0.069,0.465,0.103 C218.498,365.092,218.343,365.058,218.188,365.006z"/><path style="fill:#FFFFFF;" d="M217.516,364.782c0.155,0.069,0.328,0.121,0.483,0.155c-0.259-0.052-0.517-0.138-0.776-0.241 C217.326,364.73,217.412,364.765,217.516,364.782z"/><path style="fill:#DADDE0;" d="M217.516,364.782c-0.103-0.017-0.19-0.052-0.293-0.086c-0.017,0.017-0.052,0-0.069-0.017v-0.034 C217.274,364.713,217.395,364.747,217.516,364.782z"/><path style="fill:#D1D1D1;" d="M216.343,331.511l0.81,33.133c-0.276-0.086-0.552-0.19-0.81-0.31V331.511z"/><polygon style="fill:#DADDE0;" points="216.343,291.309 216.343,331.511 215.343,290.585 "/><path style="fill:#ADBCC9;" d="M350.118,182.065l-124.5,110.089c-1.241,1.103-2.034,2.62-2.207,4.275l-4.474,67.1 c-0.172,1.396-2.103,1.586-2.517,0.241l-20.04-88.045c-0.914-2.913,0.276-6.068,2.862-7.671l147.015-91.177 C349.636,174.773,353.101,179.428,350.118,182.065z"/></symbol><symbol viewBox="0 0 252.1 477.2" id="arrow-left" xmlns="http://www.w3.org/2000/svg"><title>arrow-left</title><path d="M3.9 248.1L229 473.2a13.2 13.2 0 0 0 9.5 4 13.6 13.6 0 0 0 9.5-23.1L32.5 238.6 248 23.1A13.506 13.506 0 0 0 228.9 4L3.8 229.1a13.4 13.4 0 0 0 .1 19z"/></symbol><symbol viewBox="0 0 252.1 477.2" id="arrow-right" xmlns="http://www.w3.org/2000/svg"><title>arrow-right</title><path d="M248.1 229.1L23 4A13.506 13.506 0 1 0 3.9 23.1l215.5 215.5L3.9 454.1a13.6 13.6 0 0 0 9.5 23.1 13.2 13.2 0 0 0 9.5-4L248 248.1a13.4 13.4 0 0 0 .1-19z"/></symbol><symbol viewBox="0 0 483.3 367.8" id="envelope" xmlns="http://www.w3.org/2000/svg"><title>envelope</title><path d="M424.3 0H59.1A59.2 59.2 0 0 0 0 59v249.7a59.2 59.2 0 0 0 59.1 59.1h365.1a59.2 59.2 0 0 0 59.1-59.1V59.2a59.1 59.1 0 0 0-59-59.2zm32.1 308.7a32.1 32.1 0 0 1-32.1 32.1H59.1A32.1 32.1 0 0 1 27 308.7V59.2a32.1 32.1 0 0 1 32.1-32.1h365.1a32.1 32.1 0 0 1 32.1 32.1v249.5z"/><path d="M304.8 180.8L423 74.8a13.524 13.524 0 1 0-18.1-20.1L241.9 201l-31.8-28.4c-.1-.1-.2-.2-.2-.3l-2.2-1.9L78.3 54.5a13.528 13.528 0 0 0-18 20.2l119.6 107L60.8 293.2a13.6 13.6 0 0 0-.6 19.1 13.8 13.8 0 0 0 9.9 4.3 13.5 13.5 0 0 0 9.2-3.6l120.9-113.2 32.8 29.3a13.5 13.5 0 0 0 18-.1l33.7-30.2L404.9 313a13.5 13.5 0 0 0 19.1-.5 13.6 13.6 0 0 0-.5-19.1z"/></symbol><symbol viewBox="0 0 512 512" id="facebook" xmlns="http://www.w3.org/2000/svg"><title>facebook</title><path d="M512 256C512 114.6 397.4 0 256 0S0 114.6 0 256s114.6 256 256 256 256-114.6 256-256zm-488.7 0C23.3 127.5 127.5 23.3 256 23.3S488.7 127.5 488.7 256 384.5 488.7 256 488.7 23.3 384.5 23.3 256z"/><path d="M265.8 403.8V256h48.8l7.7-49h-56.5v-24.5c0-12.8 4.2-25 22.5-25H325v-48.9h-52c-43.8 0-55.7 28.8-55.7 68.7V207h-30v49h30v147.8z"/></symbol><symbol viewBox="0 0 512 512" id="fullscreen" xmlns="http://www.w3.org/2000/svg"><title>fullscreen</title><path d="M204.1 284.6L127.6 361l.4-41a16 16 0 1 0-32 0v80a14.3 14.3 0 0 0 5.1 11.2 15.9 15.9 0 0 0 11.4 4.8H192a16 16 0 1 0 0-32h-42.1l76.8-76.8zM192 128a16 16 0 1 0 0-32h-79.6a16 16 0 0 0-11.4 4.8 14.3 14.3 0 0 0-5 11.2v80a16 16 0 1 0 32 0l-.4-41.1 76.4 76.4 22.6-22.6L150 128zm208 176a16 16 0 0 0-16 16l.4 41.1-76.4-76.4-22.6 22.6 76.7 76.7H320a16 16 0 1 0 0 32h79.6a15.9 15.9 0 0 0 11.4-4.8 14.3 14.3 0 0 0 5-11.2v-80a16 16 0 0 0-16-16zm-.4-208H320a16 16 0 1 0 0 32h42l-76.8 76.8 22.6 22.6 76.5-76.4-.3 41a16 16 0 1 0 32 0v-80a14.4 14.4 0 0 0-5.1-11.2 16 16 0 0 0-11.3-4.8zM448 0H64A64 64 0 0 0 0 64v384a64 64 0 0 0 64 64h384a64 64 0 0 0 64-64V64a64 64 0 0 0-64-64zm32 448a32 32 0 0 1-32 32H64a32 32 0 0 1-32-32V64a32 32 0 0 1 32-32h384a32 32 0 0 1 32 32z"/></symbol><symbol viewBox="0 0 512 512" id="gplus" xmlns="http://www.w3.org/2000/svg"><title>gplus</title><path d="M292.1 336.5c0-25.1-14.5-37.5-30.6-51l-13.1-10.2c-4-3.3-9.4-7.6-9.4-15.6s5.5-13.1 10.2-17.8c15.3-12 30.6-24.7 30.6-51.7S262.3 148 254 141.1h22.6l23.1-13.1h-75c-19.6 0-44.4 2.9-65.1 20-15.6 13.5-23.3 32-23.3 48.8 0 28.4 21.8 57.1 60.4 57.1 3.7 0 7.6-.4 11.7-.7-1.8 4.4-3.6 8-3.6 14.2 0 11.3 5.8 18.2 10.9 24.7-16.4 1.1-46.9 2.9-69.5 16.7s-28 31.3-28 44.4c0 26.9 25.5 52 78.2 52 62.6.1 95.7-34.5 95.7-68.7zm-78.2-92.8c-31.3 0-45.5-40.4-45.5-64.8 0-9.5 1.8-19.3 8-26.9s16-12 25.5-12c30.2 0 45.8 40.8 45.8 67 0 6.6-.7 18.2-9.1 26.6a37.3 37.3 0 0 1-24.7 10.1zm.4 146.3c-38.9 0-64-18.5-64-44.4s23.3-34.6 31.3-37.5c15.3-5.1 34.9-5.8 38.2-5.8a57.5 57.5 0 0 1 8.4.4c27.7 19.6 39.7 29.5 39.7 48-.2 22.6-18.7 39.3-53.7 39.3z"/><path d="M295.4 265.8h39.4v39.4h19.7v-39.4h39.3v-19.6h-39.3v-39.4h-19.7v39.4h-39.4v19.6z"/><path d="M512 256C512 114.6 397.4 0 256 0S0 114.6 0 256s114.6 256 256 256 256-114.6 256-256zm-488.7 0C23.3 127.5 127.5 23.3 256 23.3S488.7 127.5 488.7 256 384.5 488.7 256 488.7 23.3 384.5 23.3 256z"/></symbol><symbol viewBox="0 0 28 28" id="instagram" xmlns="http://www.w3.org/2000/svg"><title>instagram</title><path d="M14 0a14 14 0 1 0 14 14A14 14 0 0 0 14 0zm0 26.4A12.4 12.4 0 1 1 26.4 14 12.4 12.4 0 0 1 14 26.4z"/><path d="M19.1 7.1H8.9a1.7 1.7 0 0 0-1.7 1.7v10.4a1.7 1.7 0 0 0 1.7 1.7h10.2a1.7 1.7 0 0 0 1.7-1.7V8.8a1.7 1.7 0 0 0-1.7-1.7zm.1 12H8.8V8.8h10.4z"/><path d="M16.3 9.9h1.8v1.68h-1.8z"/><circle cx="14" cy="14.7" r="1.8"/><path d="M16.9 14.7a2.9 2.9 0 0 1-5.8 0v-1.3H9.8v4.8h8.3v-4.8h-1.2z"/></symbol><symbol viewBox="0 0 473.1 473.8" id="phone" xmlns="http://www.w3.org/2000/svg"><title>phone</title><path d="M374.2 293.5c-9.7-10.1-21.4-15.5-33.8-15.5s-24.1 5.3-34.2 15.4l-31.6 31.5-7.7-4c-3.6-1.8-7-3.5-9.9-5.3-29.6-18.8-56.5-43.3-82.3-75-12.5-15.8-20.9-29.1-27-42.6 8.2-7.5 15.8-15.3 23.2-22.8l8.4-8.5c21-21 21-48.2 0-69.2L152 70.2c-3.1-3.1-6.3-6.3-9.3-9.5-6-6.2-12.3-12.6-18.8-18.6-9.7-9.6-21.3-14.7-33.5-14.7s-24 5.1-34 14.7l-.2.2-34 34.3A73.2 73.2 0 0 0 .5 123.1c-2.4 29.2 6.2 56.4 12.8 74.2 16.2 43.7 40.4 84.2 76.5 127.6 43.8 52.3 96.5 93.6 156.7 122.7 23 10.9 53.7 23.8 88 26l6.3.2c23.1 0 42.5-8.3 57.7-24.8l.4-.5c5.2-6.3 11.2-12 17.5-18.1 4.3-4.1 8.7-8.4 13-12.9 9.9-10.3 15.1-22.3 15.1-34.6s-5.3-24.3-15.4-34.3zM410 398.8c-.1 0-.1.1 0 0-3.9 4.2-7.9 8-12.2 12.2a262.9 262.9 0 0 0-19.3 20c-10.1 10.8-22 15.9-37.6 15.9h-4.6c-29.7-1.9-57.3-13.5-78-23.4C201.7 396 152 357.1 110.7 307.8c-34.1-41.1-56.9-79.1-72-119.9-9.3-24.9-12.7-44.3-11.2-62.6a45.9 45.9 0 0 1 13.8-29.7l34.1-34.1c4.9-4.6 10.1-7.1 15.2-7.1s11.4 3.8 14.6 7l.3.3c6.1 5.7 11.9 11.6 18 17.9l9.5 9.7 27.3 27.3c10.6 10.6 10.6 20.4 0 31-2.9 2.9-5.7 5.8-8.6 8.6-8.4 8.6-16.4 16.6-25.1 24.4l-.5.5c-8.6 8.6-7 17-5.2 22.7l.3.9c7.1 17.2 17.1 33.4 32.3 52.7h.1c27.6 34 56.7 60.5 88.8 80.8a136.5 136.5 0 0 0 12.3 6.8c3.6 1.8 7 3.5 9.9 5.3l1.2.7a21.7 21.7 0 0 0 9.9 2.5c8.3 0 13.5-5.2 15.2-6.9l34.2-34.2c3.4-3.4 8.8-7.5 15.1-7.5s11.3 3.9 14.4 7.3l.2.2 55.1 55.1c10.3 10.2 10.3 20.7.1 31.3zM255.8 112.7a128.7 128.7 0 0 1 104.8 104.8 13.4 13.4 0 0 0 13.3 11.2l2.3-.2a13.5 13.5 0 0 0 11.1-15.6A155.6 155.6 0 0 0 260.5 86.1a13.6 13.6 0 0 0-15.6 11 13.4 13.4 0 0 0 10.9 15.6z"/><path d="M473 209A256.2 256.2 0 0 0 264.2.2a13.5 13.5 0 1 0-4.4 26.6 228.9 228.9 0 0 1 186.6 186.6 13.4 13.4 0 0 0 13.3 11.2l2.3-.2a13.2 13.2 0 0 0 11-15.4z"/></symbol><symbol viewBox="0 0 31 42" id="play" xmlns="http://www.w3.org/2000/svg"><title>play</title><path d="M30.6 20.2L1.6.2A1 1 0 0 0 0 1v40a1 1 0 0 0 .5.9H1l.6-.2 29-20a1 1 0 0 0 0-1.6zM2 39.1V2.9L28.2 21z"/></symbol><symbol viewBox="0 0 512 512" id="twitter" xmlns="http://www.w3.org/2000/svg"><title>twitter</title><path d="M365.8 205.1c0-2.6 0-5.1-.2-7.7a116.3 116.3 0 0 0 28.2-30.3 108.4 108.4 0 0 1-32.5 8.9 58.1 58.1 0 0 0 24.9-32.5 108.6 108.6 0 0 1-35.9 13.8 56.3 56.3 0 0 0-41.3-19.5c-31.2-.5-56.6 25.9-56.6 58.9a62.9 62.9 0 0 0 1.5 13.7c-47-3-88.7-27.5-116.6-64.4a62.6 62.6 0 0 0-7.7 30.3c0 20.9 10 39.6 25.2 50.5a54.1 54.1 0 0 1-25.6-7.8v.8c0 29.3 19.5 53.8 45.4 59.5a53.6 53.6 0 0 1-14.9 2 51.7 51.7 0 0 1-10.6-1.2c7.2 24 28.1 41.5 52.8 42.1a109.2 109.2 0 0 1-70.2 25.6 107.7 107.7 0 0 1-13.5-.9 152.6 152.6 0 0 0 86.7 27.2c104 .1 160.9-90.5 160.9-169z"/><path d="M512 256C512 114.6 397.4 0 256 0S0 114.6 0 256s114.6 256 256 256 256-114.6 256-256zm-488.7 0C23.3 127.5 127.5 23.3 256 23.3S488.7 127.5 488.7 256 384.5 488.7 256 488.7 23.3 384.5 23.3 256z"/></symbol><symbol viewBox="0 0 29.6 29.6" id="vk" xmlns="http://www.w3.org/2000/svg"><title>vk</title><path d="M22.5 9a.7.7 0 0 0-1 .1L15.8 16h-.1V9.6a.7.7 0 0 0-.7-.7h-.9a.7.7 0 0 0 0 1.4h.2v8.9l-7.9-10a.71.71 0 0 0-1.1.9l9.1 11.7a.7.7 0 0 0 .6.3h.2a.7.7 0 0 0 .5-.7v-4.5l.2.2 5.6 4.8.5.2a.7.7 0 0 0 .5-1.3l-5.2-4.3 5.3-6.4a.7.7 0 0 0-.1-1.1z"/><path d="M14.8 0a14.8 14.8 0 1 0 14.8 14.8A14.8 14.8 0 0 0 14.8 0zm0 28A13.2 13.2 0 1 1 28 14.8 13.2 13.2 0 0 1 14.8 28z"/></symbol></svg>